<svg width="28" height="32" viewBox="0 0 28 32" fill="none" xmlns="http://www.w3.org/2000/svg">
<g clip-path="url(#clip0_1_2)">
<path d="M8.62 0H20.8L20.85 0.08L22.53 2.01C23.1 2.66 23.67 3.3 24.23 3.95C24.79 4.6 25.35 5.24 25.93 5.89C26.51 6.54 27.06 7.17 27.62 7.82C27.6637 7.8815 27.688 7.9546 27.69 8.03C27.69 8.4 27.69 8.78 27.69 9.15V16.41C27.69 18.85 27.69 21.28 27.69 23.72C27.6919 24.0097 27.6583 24.2985 27.59 24.58C27.3358 25.596 26.7025 26.4762 25.82 27.04C25.2328 27.4496 24.5358 27.6726 23.82 27.68H22.77C22.7585 27.8613 22.7351 28.0417 22.7 28.22C22.5814 28.959 22.2609 29.6508 21.7739 30.219C21.2868 30.7873 20.6521 31.2098 19.94 31.44C19.6617 31.5267 19.3777 31.5935 19.09 31.64H3.68H3.45C2.4172 31.4684 1.48992 30.9063 0.859998 30.07C0.280805 29.3368 -0.0234585 28.424 -1.80863e-06 27.49C-1.80863e-06 25.37 -1.80863e-06 23.25 -1.80863e-06 21.13C-1.80863e-06 19.03 -1.80863e-06 16.92 -1.80863e-06 14.82C-1.80863e-06 12.56 -1.80863e-06 10.29 -1.80863e-06 8.03C-0.014953 7.82027 -0.014953 7.60973 -1.80863e-06 7.4C0.12436 6.55697 0.508933 5.77384 1.1 5.16C1.44579 4.77216 1.87166 4.464 2.34818 4.25682C2.8247 4.04964 3.34052 3.94836 3.86 3.96C4.22 3.96 4.58 3.96 4.94 3.96C4.94 3.76 4.94 3.58 5.01 3.4C5.14925 2.60783 5.51679 1.87356 6.06749 1.28734C6.61818 0.701112 7.32807 0.288446 8.11 0.1L8.62 0ZM20.76 27.69H9.08C8.79485 27.6886 8.51039 27.6619 8.23 27.61C7.30849 27.4168 6.48037 26.9152 5.88227 26.188C5.28416 25.4608 4.95179 24.5515 4.94 23.61C4.94 22.88 4.94 22.15 4.94 21.41V5.9C4.49 5.9 4.07 5.98 3.66 6.05C3.24375 6.1069 2.85205 6.28022 2.53 6.55C2.33705 6.72596 2.18643 6.94332 2.08945 7.18578C1.99246 7.42824 1.95163 7.68951 1.97 7.95V27.52C1.97 27.63 1.97 27.75 1.97 27.86C2.04325 28.3462 2.28243 28.792 2.64697 29.1219C3.01151 29.4518 3.47895 29.6455 3.97 29.67H16.94C17.67 29.67 18.4 29.67 19.12 29.67C19.3591 29.6513 19.592 29.5848 19.8049 29.4744C20.0177 29.364 20.2063 29.2119 20.3592 29.0272C20.5122 28.8426 20.6265 28.629 20.6954 28.3993C20.7642 28.1696 20.7862 27.9284 20.76 27.69ZM16.35 20.76H20.8C21.0652 20.76 21.3196 20.6546 21.5071 20.4671C21.6946 20.2796 21.8 20.0252 21.8 19.76C21.8 19.4948 21.6946 19.2404 21.5071 19.0529C21.3196 18.8654 21.0652 18.76 20.8 18.76H11.7C11.4582 18.8083 11.2428 18.9443 11.0951 19.1418C10.9474 19.3393 10.878 19.5844 10.9 19.83C10.905 19.9548 10.9351 20.0774 10.9886 20.1904C11.042 20.3033 11.1176 20.4043 11.211 20.4874C11.3043 20.5705 11.4134 20.6339 11.5318 20.6738C11.6502 20.7138 11.7754 20.7295 11.9 20.72L16.35 20.76ZM16.35 13.85H11.85C11.7117 13.8461 11.5744 13.8748 11.4493 13.9339C11.3242 13.993 11.2148 14.0807 11.13 14.19C10.9945 14.3417 10.9085 14.5312 10.8835 14.7331C10.8584 14.935 10.8956 15.1398 10.99 15.32C11.0716 15.4854 11.201 15.6225 11.3615 15.7135C11.522 15.8044 11.7061 15.845 11.89 15.83H20.8C21.0652 15.83 21.3196 15.7246 21.5071 15.5371C21.6946 15.3496 21.8 15.0952 21.8 14.83C21.8105 14.696 21.7919 14.5613 21.7454 14.4352C21.6988 14.3091 21.6255 14.1946 21.5305 14.0995C21.4354 14.0045 21.3209 13.9312 21.1948 13.8846C21.0687 13.8381 20.934 13.8195 20.8 13.83L16.35 13.85ZM20.8 2.01V5.83C20.7997 6.01168 20.8198 6.19282 20.86 6.37C20.9746 6.80315 21.2266 7.18744 21.5782 7.46513C21.9299 7.74282 22.3621 7.89893 22.81 7.91H25.75L20.8 2.01Z" fill="black"/>
</g>
<defs>
<clipPath id="clip0_1_2">
<rect width="27.7" height="31.64" fill="white"/>
</clipPath>
</defs>
</svg>
